<svg width="28" height="28" viewBox="0 0 28 28" fill="none" xmlns="http://www.w3.org/2000/svg">
<path d="M6.99995 5.6C6.25734 5.6 5.54515 5.305 5.02005 4.7799C4.49495 4.2548 4.19995 3.54261 4.19995 2.8C4.19995 2.05739 4.49495 1.3452 5.02005 0.820101C5.54515 0.294999 6.25734 0 6.99995 0C7.74256 0 8.45475 0.294999 8.97985 0.820101C9.50495 1.3452 9.79995 2.05739 9.79995 2.8C9.79995 3.54261 9.50495 4.2548 8.97985 4.7799C8.45475 5.305 7.74256 5.6 6.99995 5.6ZM14 5.6C13.2573 5.6 12.5452 5.305 12.0201 4.7799C11.495 4.2548 11.2 3.54261 11.2 2.8C11.2 2.05739 11.495 1.3452 12.0201 0.820101C12.5452 0.294999 13.2573 0 14 0C14.7426 0 15.4547 0.294999 15.9798 0.820101C16.505 1.3452 16.7999 2.05739 16.7999 2.8C16.7999 3.54261 16.505 4.2548 15.9798 4.7799C15.4547 5.305 14.7426 5.6 14 5.6ZM21 5.6C20.2573 5.6 19.5452 5.305 19.0201 4.7799C18.4949 4.2548 18.1999 3.54261 18.1999 2.8C18.1999 2.05739 18.4949 1.3452 19.0201 0.820101C19.5452 0.294999 20.2573 0 21 0C21.7426 0 22.4547 0.294999 22.9798 0.820101C23.5049 1.3452 23.7999 2.05739 23.7999 2.8C23.7999 3.54261 23.5049 4.2548 22.9798 4.7799C22.4547 5.305 21.7426 5.6 21 5.6ZM6.99995 12.6C6.25734 12.6 5.54515 12.305 5.02005 11.7799C4.49495 11.2548 4.19995 10.5426 4.19995 9.8C4.19995 9.05739 4.49495 8.3452 5.02005 7.8201C5.54515 7.295 6.25734 7 6.99995 7C7.74256 7 8.45475 7.295 8.97985 7.8201C9.50495 8.3452 9.79995 9.05739 9.79995 9.8C9.79995 10.5426 9.50495 11.2548 8.97985 11.7799C8.45475 12.305 7.74256 12.6 6.99995 12.6ZM14 12.6C13.2573 12.6 12.5452 12.305 12.0201 11.7799C11.495 11.2548 11.2 10.5426 11.2 9.8C11.2 9.05739 11.495 8.3452 12.0201 7.8201C12.5452 7.295 13.2573 7 14 7C14.7426 7 15.4547 7.295 15.9798 7.8201C16.505 8.3452 16.7999 9.05739 16.7999 9.8C16.7999 10.5426 16.505 11.2548 15.9798 11.7799C15.4547 12.305 14.7426 12.6 14 12.6ZM21 12.6C20.2573 12.6 19.5452 12.305 19.0201 11.7799C18.4949 11.2548 18.1999 10.5426 18.1999 9.8C18.1999 9.05739 18.4949 8.3452 19.0201 7.8201C19.5452 7.295 20.2573 7 21 7C21.7426 7 22.4547 7.295 22.9798 7.8201C23.5049 8.3452 23.7999 9.05739 23.7999 9.8C23.7999 10.5426 23.5049 11.2548 22.9798 11.7799C22.4547 12.305 21.7426 12.6 21 12.6ZM6.99995 19.6C6.25734 19.6 5.54515 19.305 5.02005 18.7799C4.49495 18.2548 4.19995 17.5426 4.19995 16.8C4.19995 16.0574 4.49495 15.3452 5.02005 14.8201C5.54515 14.295 6.25734 14 6.99995 14C7.74256 14 8.45475 14.295 8.97985 14.8201C9.50495 15.3452 9.79995 16.0574 9.79995 16.8C9.79995 17.5426 9.50495 18.2548 8.97985 18.7799C8.45475 19.305 7.74256 19.6 6.99995 19.6ZM14 19.6C13.2573 19.6 12.5452 19.305 12.0201 18.7799C11.495 18.2548 11.2 17.5426 11.2 16.8C11.2 16.0574 11.495 15.3452 12.0201 14.8201C12.5452 14.295 13.2573 14 14 14C14.7426 14 15.4547 14.295 15.9798 14.8201C16.505 15.3452 16.7999 16.0574 16.7999 16.8C16.7999 17.5426 16.505 18.2548 15.9798 18.7799C15.4547 19.305 14.7426 19.6 14 19.6ZM14 28C13.2573 28 12.5452 27.705 12.0201 27.1799C11.495 26.6548 11.2 25.9426 11.2 25.2C11.2 24.4574 11.495 23.7452 12.0201 23.2201C12.5452 22.695 13.2573 22.4 14 22.4C14.7426 22.4 15.4547 22.695 15.9798 23.2201C16.505 23.7452 16.7999 24.4574 16.7999 25.2C16.7999 25.9426 16.505 26.6548 15.9798 27.1799C15.4547 27.705 14.7426 28 14 28ZM21 19.6C20.2573 19.6 19.5452 19.305 19.0201 18.7799C18.4949 18.2548 18.1999 17.5426 18.1999 16.8C18.1999 16.0574 18.4949 15.3452 19.0201 14.8201C19.5452 14.295 20.2573 14 21 14C21.7426 14 22.4547 14.295 22.9798 14.8201C23.5049 15.3452 23.7999 16.0574 23.7999 16.8C23.7999 17.5426 23.5049 18.2548 22.9798 18.7799C22.4547 19.305 21.7426 19.6 21 19.6Z" fill="white"/>
</svg>
