<svg width="86" height="37" viewBox="0 0 86 37" fill="none" xmlns="http://www.w3.org/2000/svg">
<g filter="url(#filter0_d_178_1882)">
<rect x="4" width="78" height="29" rx="14.5" fill="#68CF29"/>
</g>
<path d="M36.1895 10.6055L33.6406 18H32.0996L35.3105 9.46875H36.2949L36.1895 10.6055ZM38.3223 18L35.7676 10.6055L35.6562 9.46875H36.6465L39.8691 18H38.3223ZM38.1992 14.8359V16.002H33.5586V14.8359H38.1992ZM43.7734 16.9922C44.0039 16.9922 44.2109 16.9473 44.3945 16.8574C44.582 16.7637 44.7324 16.6348 44.8457 16.4707C44.9629 16.3066 45.0273 16.1172 45.0391 15.9023H46.3691C46.3613 16.3125 46.2402 16.6855 46.0059 17.0215C45.7715 17.3574 45.4609 17.625 45.0742 17.8242C44.6875 18.0195 44.2598 18.1172 43.791 18.1172C43.3066 18.1172 42.8848 18.0352 42.5254 17.8711C42.166 17.7031 41.8672 17.4727 41.6289 17.1797C41.3906 16.8867 41.2109 16.5488 41.0898 16.166C40.9727 15.7832 40.9141 15.373 40.9141 14.9355V14.7305C40.9141 14.293 40.9727 13.8828 41.0898 13.5C41.2109 13.1133 41.3906 12.7734 41.6289 12.4805C41.8672 12.1875 42.166 11.959 42.5254 11.7949C42.8848 11.627 43.3047 11.543 43.7852 11.543C44.293 11.543 44.7383 11.6445 45.1211 11.8477C45.5039 12.0469 45.8047 12.3262 46.0234 12.6855C46.2461 13.041 46.3613 13.4551 46.3691 13.9277H45.0391C45.0273 13.6934 44.9688 13.4824 44.8633 13.2949C44.7617 13.1035 44.6172 12.9512 44.4297 12.8379C44.2461 12.7246 44.0254 12.668 43.7676 12.668C43.4824 12.668 43.2461 12.7266 43.0586 12.8438C42.8711 12.957 42.7246 13.1133 42.6191 13.3125C42.5137 13.5078 42.4375 13.7285 42.3906 13.9746C42.3477 14.2168 42.3262 14.4688 42.3262 14.7305V14.9355C42.3262 15.1973 42.3477 15.4512 42.3906 15.6973C42.4336 15.9434 42.5078 16.1641 42.6133 16.3594C42.7227 16.5508 42.8711 16.7051 43.0586 16.8223C43.2461 16.9355 43.4844 16.9922 43.7734 16.9922ZM50.543 16.9922C50.7734 16.9922 50.9805 16.9473 51.1641 16.8574C51.3516 16.7637 51.502 16.6348 51.6152 16.4707C51.7324 16.3066 51.7969 16.1172 51.8086 15.9023H53.1387C53.1309 16.3125 53.0098 16.6855 52.7754 17.0215C52.541 17.3574 52.2305 17.625 51.8438 17.8242C51.457 18.0195 51.0293 18.1172 50.5605 18.1172C50.0762 18.1172 49.6543 18.0352 49.2949 17.8711C48.9355 17.7031 48.6367 17.4727 48.3984 17.1797C48.1602 16.8867 47.9805 16.5488 47.8594 16.166C47.7422 15.7832 47.6836 15.373 47.6836 14.9355V14.7305C47.6836 14.293 47.7422 13.8828 47.8594 13.5C47.9805 13.1133 48.1602 12.7734 48.3984 12.4805C48.6367 12.1875 48.9355 11.959 49.2949 11.7949C49.6543 11.627 50.0742 11.543 50.5547 11.543C51.0625 11.543 51.5078 11.6445 51.8906 11.8477C52.2734 12.0469 52.5742 12.3262 52.793 12.6855C53.0156 13.041 53.1309 13.4551 53.1387 13.9277H51.8086C51.7969 13.6934 51.7383 13.4824 51.6328 13.2949C51.5312 13.1035 51.3867 12.9512 51.1992 12.8379C51.0156 12.7246 50.7949 12.668 50.5371 12.668C50.252 12.668 50.0156 12.7266 49.8281 12.8438C49.6406 12.957 49.4941 13.1133 49.3887 13.3125C49.2832 13.5078 49.207 13.7285 49.1602 13.9746C49.1172 14.2168 49.0957 14.4688 49.0957 14.7305V14.9355C49.0957 15.1973 49.1172 15.4512 49.1602 15.6973C49.2031 15.9434 49.2773 16.1641 49.3828 16.3594C49.4922 16.5508 49.6406 16.7051 49.8281 16.8223C50.0156 16.9355 50.2539 16.9922 50.543 16.9922ZM57.5176 18.1172C57.0488 18.1172 56.625 18.041 56.2461 17.8887C55.8711 17.7324 55.5508 17.5156 55.2852 17.2383C55.0234 16.9609 54.8223 16.6348 54.6816 16.2598C54.541 15.8848 54.4707 15.4805 54.4707 15.0469V14.8125C54.4707 14.3164 54.543 13.8672 54.6875 13.4648C54.832 13.0625 55.0332 12.7188 55.291 12.4336C55.5488 12.1445 55.8535 11.9238 56.2051 11.7715C56.5566 11.6191 56.9375 11.543 57.3477 11.543C57.8008 11.543 58.1973 11.6191 58.5371 11.7715C58.877 11.9238 59.1582 12.1387 59.3809 12.416C59.6074 12.6895 59.7754 13.0156 59.8848 13.3945C59.998 13.7734 60.0547 14.1914 60.0547 14.6484V15.252H55.1562V14.2383H58.6602V14.127C58.6523 13.873 58.6016 13.6348 58.5078 13.4121C58.418 13.1895 58.2793 13.0098 58.0918 12.873C57.9043 12.7363 57.6543 12.668 57.3418 12.668C57.1074 12.668 56.8984 12.7188 56.7148 12.8203C56.5352 12.918 56.3848 13.0605 56.2637 13.248C56.1426 13.4355 56.0488 13.6621 55.9824 13.9277C55.9199 14.1895 55.8887 14.4844 55.8887 14.8125V15.0469C55.8887 15.3242 55.9258 15.582 56 15.8203C56.0781 16.0547 56.1914 16.2598 56.3398 16.4355C56.4883 16.6113 56.668 16.75 56.8789 16.8516C57.0898 16.9492 57.3301 16.998 57.5996 16.998C57.9395 16.998 58.2422 16.9297 58.5078 16.793C58.7734 16.6562 59.0039 16.4629 59.1992 16.2129L59.9434 16.9336C59.8066 17.1328 59.6289 17.3242 59.4102 17.5078C59.1914 17.6875 58.9238 17.834 58.6074 17.9473C58.2949 18.0605 57.9316 18.1172 57.5176 18.1172ZM63.0742 12.8789V20.4375H61.6621V11.6602H62.9629L63.0742 12.8789ZM67.2051 14.7715V14.8945C67.2051 15.3555 67.1504 15.7832 67.041 16.1777C66.9355 16.5684 66.7773 16.9102 66.5664 17.2031C66.3594 17.4922 66.1035 17.7168 65.7988 17.877C65.4941 18.0371 65.1426 18.1172 64.7441 18.1172C64.3496 18.1172 64.0039 18.0449 63.707 17.9004C63.4141 17.752 63.166 17.543 62.9629 17.2734C62.7598 17.0039 62.5957 16.6875 62.4707 16.3242C62.3496 15.957 62.2637 15.5547 62.2129 15.1172V14.6426C62.2637 14.1777 62.3496 13.7559 62.4707 13.377C62.5957 12.998 62.7598 12.6719 62.9629 12.3984C63.166 12.125 63.4141 11.9141 63.707 11.7656C64 11.6172 64.3418 11.543 64.7324 11.543C65.1309 11.543 65.4844 11.6211 65.793 11.7773C66.1016 11.9297 66.3613 12.1484 66.5723 12.4336C66.7832 12.7148 66.9414 13.0547 67.0469 13.4531C67.1523 13.8477 67.2051 14.2871 67.2051 14.7715ZM65.793 14.8945V14.7715C65.793 14.4785 65.7656 14.207 65.7109 13.957C65.6562 13.7031 65.5703 13.4805 65.4531 13.2891C65.3359 13.0977 65.1855 12.9492 65.002 12.8438C64.8223 12.7344 64.6055 12.6797 64.3516 12.6797C64.1016 12.6797 63.8867 12.7227 63.707 12.8086C63.5273 12.8906 63.377 13.0059 63.2559 13.1543C63.1348 13.3027 63.041 13.4766 62.9746 13.6758C62.9082 13.8711 62.8613 14.084 62.834 14.3145V15.4512C62.8809 15.7324 62.9609 15.9902 63.0742 16.2246C63.1875 16.459 63.3477 16.6465 63.5547 16.7871C63.7656 16.9238 64.0352 16.9922 64.3633 16.9922C64.6172 16.9922 64.834 16.9375 65.0137 16.8281C65.1934 16.7188 65.3398 16.5684 65.4531 16.377C65.5703 16.1816 65.6562 15.957 65.7109 15.7031C65.7656 15.4492 65.793 15.1797 65.793 14.8945ZM71.8125 11.6602V12.6914H68.2383V11.6602H71.8125ZM69.2695 10.1074H70.6816V16.248C70.6816 16.4434 70.709 16.5938 70.7637 16.6992C70.8223 16.8008 70.9023 16.8691 71.0039 16.9043C71.1055 16.9395 71.2246 16.957 71.3613 16.957C71.459 16.957 71.5527 16.9512 71.6426 16.9395C71.7324 16.9277 71.8047 16.916 71.8594 16.9043L71.8652 17.9824C71.748 18.0176 71.6113 18.0488 71.4551 18.0762C71.3027 18.1035 71.127 18.1172 70.9277 18.1172C70.6035 18.1172 70.3164 18.0605 70.0664 17.9473C69.8164 17.8301 69.6211 17.6406 69.4805 17.3789C69.3398 17.1172 69.2695 16.7695 69.2695 16.3359V10.1074Z" fill="white"/>
<path d="M17.2829 17.7173C22.9108 23.3451 24.5599 21.9984 25.2964 21.4722C25.4154 21.4046 28.1414 19.6481 26.4461 17.9532C22.514 14.0208 23.3119 19.132 19.5892 15.4102C15.8675 11.6876 20.9792 12.486 17.0471 8.55399C15.3516 6.85851 13.5949 9.58469 13.5281 9.70297C13.0013 10.4395 11.6551 12.0896 17.2829 17.7173Z" stroke="white" stroke-width="1.25" stroke-linecap="round"/>
<defs>
<filter id="filter0_d_178_1882" x="0" y="0" width="86" height="37" filterUnits="userSpaceOnUse" color-interpolation-filters="sRGB">
<feFlood flood-opacity="0" result="BackgroundImageFix"/>
<feColorMatrix in="SourceAlpha" type="matrix" values="0 0 0 0 0 0 0 0 0 0 0 0 0 0 0 0 0 0 127 0" result="hardAlpha"/>
<feOffset dy="4"/>
<feGaussianBlur stdDeviation="2"/>
<feComposite in2="hardAlpha" operator="out"/>
<feColorMatrix type="matrix" values="0 0 0 0 0 0 0 0 0 0 0 0 0 0 0 0 0 0 0.25 0"/>
<feBlend mode="normal" in2="BackgroundImageFix" result="effect1_dropShadow_178_1882"/>
<feBlend mode="normal" in="SourceGraphic" in2="effect1_dropShadow_178_1882" result="shape"/>
</filter>
</defs>
</svg>
