<svg width="25" height="25" viewBox="0 0 25 25" fill="none" xmlns="http://www.w3.org/2000/svg">
<path d="M14.4324 12L18 9L14.4324 6V8.24925H10V9.74925H14.4324V12Z" fill="#0D63B0"/>
<path d="M14 23.25C14 22.0123 14.4917 20.8253 15.3668 19.9502C16.242 19.075 17.429 18.5833 18.6667 18.5833C19.9043 18.5833 21.0913 19.075 21.9665 19.9502C22.8417 20.8253 23.3333 22.0123 23.3333 23.25H14ZM18.6667 18C16.7329 18 15.1667 16.4337 15.1667 14.5C15.1667 12.5662 16.7329 11 18.6667 11C20.6004 11 22.1667 12.5662 22.1667 14.5C22.1667 16.4337 20.6004 18 18.6667 18Z" fill="#E82A2A"/>
<path d="M1 14.25C1 13.0123 1.49167 11.8253 2.36684 10.9502C3.242 10.075 4.42899 9.58333 5.66667 9.58333C6.90434 9.58333 8.09133 10.075 8.9665 10.9502C9.84167 11.8253 10.3333 13.0123 10.3333 14.25H1ZM5.66667 9C3.73292 9 2.16667 7.43375 2.16667 5.5C2.16667 3.56625 3.73292 2 5.66667 2C7.60042 2 9.16667 3.56625 9.16667 5.5C9.16667 7.43375 7.60042 9 5.66667 9Z" fill="#E82A2A"/>
</svg>
