<svg width="18" height="14" viewBox="0 0 18 14" fill="none" xmlns="http://www.w3.org/2000/svg">
<path d="M15.3992 0.164319L14.5886 0.953052C11.7514 3.80125 12.1567 10.5931 14.5886 13.0469L15.3992 13.8357C15.6244 14.0548 15.9847 14.0548 16.2099 13.8357L17.8311 12.2144C18.0563 11.9953 18.0563 11.6448 17.8311 11.4257L16.2999 9.93584H14.1383C13.5528 9.3662 13.5528 4.6338 14.1383 4.06416H16.2999L17.7861 2.57433C18.0113 2.35524 18.0113 2.0047 17.7861 1.7856L16.2099 0.164319C15.9847 -0.0547731 15.6244 -0.0547731 15.3992 0.164319ZM2.78945 0.164319L1.97882 0.953052C-0.858379 3.80125 -0.453064 10.5931 1.97882 13.0469L2.78945 13.8357C3.01463 14.0548 3.37491 14.0548 3.60008 13.8357L5.22134 12.2144C5.44651 11.9953 5.44651 11.6448 5.22134 11.4257L3.69015 9.93584H1.57351C0.988054 9.3662 0.988054 4.6338 1.57351 4.06416H3.73518L5.22134 2.57433C5.44651 2.35524 5.44651 2.0047 5.22134 1.7856L3.60008 0.164319C3.37491 -0.0547731 3.01463 -0.0547731 2.78945 0.164319Z" fill="#333F54"/>
<path d="M9.12408 4.53888L11.5602 6.97496L9.12408 9.41104V4.53888Z" fill="#333F54"/>
<path d="M4.92862 6.07272H9.891V7.87723H4.92862V6.07272Z" fill="#333F54"/>
</svg>
