<svg width="25" height="25" viewBox="0 0 25 25" fill="none" xmlns="http://www.w3.org/2000/svg">
<g clip-path="url(#clip0_623_66)">
<path d="M3.95442 9.33817C3.51582 11.3283 3.72142 13.424 4.53843 15.291L6.52571 15.096C6.77864 15.0712 7.00466 15.1904 7.13344 15.3875C7.5382 16.0273 8.05189 16.6153 8.67185 17.1245C8.80339 17.2325 8.88662 17.3884 8.90324 17.5578C8.91986 17.7272 8.8685 17.8962 8.76047 18.0278L7.33476 19.7637C7.22672 19.8952 7.07086 19.9784 6.90145 19.9951C6.73205 20.0117 6.56298 19.9603 6.43144 19.8523C4.19529 18.0157 2.78031 15.366 2.49777 12.4861C2.21524 9.60627 3.0883 6.73212 4.9249 4.49597C5.03293 4.36443 5.1888 4.28119 5.3582 4.26457C5.52761 4.24795 5.69667 4.29931 5.82821 4.40735L7.56409 5.83306C7.69563 5.94109 7.77887 6.09696 7.79549 6.26636C7.81211 6.43576 7.76075 6.60483 7.65271 6.73637C7.14353 7.35633 6.75391 8.03296 6.48119 8.73916C6.39317 8.95756 6.19463 9.11839 5.9417 9.14321L3.95442 9.33817Z" fill="#E82A2A"/>
<path d="M10.4324 15L14 12L10.4324 9V11.2493H6V12.7493H10.4324V15Z" fill="#0D63B0"/>
<path d="M13.3334 18.25C13.3334 17.0123 13.825 15.8253 14.7002 14.9502C15.5754 14.075 16.7624 13.5833 18 13.5833C19.2377 13.5833 20.4247 14.075 21.2999 14.9502C22.175 15.8253 22.6667 17.0123 22.6667 18.25H13.3334ZM18 13C16.0663 13 14.5 11.4337 14.5 9.5C14.5 7.56625 16.0663 6 18 6C19.9338 6 21.5 7.56625 21.5 9.5C21.5 11.4337 19.9338 13 18 13Z" fill="#E82A2A"/>
</g>
<defs>
<clipPath id="clip0_623_66">
<rect width="25" height="25" fill="white"/>
</clipPath>
</defs>
</svg>
