<svg width="21" height="14" viewBox="0 0 21 14" fill="none" xmlns="http://www.w3.org/2000/svg">
<path d="M2.78945 0.164319L1.97882 0.953052C-0.858379 3.80125 -0.453064 10.5931 1.97882 13.0469L2.78945 13.8357C3.01463 14.0548 3.37491 14.0548 3.60008 13.8357L5.22134 12.2144C5.44651 11.9953 5.44651 11.6448 5.22134 11.4257L3.69015 9.93584H1.57351C0.988054 9.3662 0.988054 4.6338 1.57351 4.06416H3.73518L5.22134 2.57434C5.44651 2.35524 5.44651 2.0047 5.22134 1.7856L3.60008 0.164319C3.37491 -0.0547731 3.01463 -0.0547731 2.78945 0.164319Z" fill="#333F54"/>
<path d="M9.12408 4.53888L11.5602 6.97496L9.12408 9.41104V4.53888Z" fill="#333F54"/>
<path d="M4.92862 6.07272H9.891V7.87723H4.92862V6.07272Z" fill="#333F54"/>
<path d="M12 13V11.6667C12 10.9594 12.281 10.2811 12.781 9.78105C13.2811 9.28095 13.9594 9 14.6667 9H17.3333C18.0406 9 18.7189 9.28095 19.219 9.78105C19.719 10.2811 20 10.9594 20 11.6667V13M13.3333 3.66667C13.3333 4.37391 13.6143 5.05219 14.1144 5.55229C14.6145 6.05238 15.2928 6.33333 16 6.33333C16.7072 6.33333 17.3855 6.05238 17.8856 5.55229C18.3857 5.05219 18.6667 4.37391 18.6667 3.66667C18.6667 2.95942 18.3857 2.28115 17.8856 1.78105C17.3855 1.28095 16.7072 1 16 1C15.2928 1 14.6145 1.28095 14.1144 1.78105C13.6143 2.28115 13.3333 2.95942 13.3333 3.66667Z" stroke="#333F54" stroke-linecap="round" stroke-linejoin="round"/>
</svg>
