<svg width="21" height="19" viewBox="0 0 21 19" fill="none" xmlns="http://www.w3.org/2000/svg">
<path d="M3.60762 0.212516L2.55923 1.23259C-1.11015 4.91619 -0.585952 13.7002 2.55923 16.8737L3.60762 17.8938C3.89884 18.1772 4.36479 18.1772 4.65601 17.8938L6.7528 15.797C7.04402 15.5136 7.04402 15.0603 6.7528 14.7769L4.7725 12.8501H2.03503C1.27786 12.1134 1.27786 5.99294 2.03503 5.25622H4.83075L6.7528 3.32941C7.04402 3.04606 7.04402 2.59269 6.7528 2.30934L4.65601 0.212516C4.36479 -0.0708385 3.89884 -0.0708385 3.60762 0.212516Z" fill="#333F54"/>
<circle cx="14.5" cy="9.5" r="6" stroke="#333F54"/>
<path d="M13 13V12.2222C13 11.8097 13.1405 11.414 13.3905 11.1223C13.6406 10.8306 13.9797 10.6667 14.3333 10.6667H15.6667C16.0203 10.6667 16.3594 10.8306 16.6095 11.1223C16.8595 11.414 17 11.8097 17 12.2222V13M13.6667 7.55556C13.6667 7.96811 13.8071 8.36378 14.0572 8.6555C14.3072 8.94722 14.6464 9.11111 15 9.11111C15.3536 9.11111 15.6928 8.94722 15.9428 8.6555C16.1929 8.36378 16.3333 7.96811 16.3333 7.55556C16.3333 7.143 16.1929 6.74733 15.9428 6.45561C15.6928 6.16389 15.3536 6 15 6C14.6464 6 14.3072 6.16389 14.0572 6.45561C13.8071 6.74733 13.6667 7.143 13.6667 7.55556Z" stroke="#333F54" stroke-linecap="round" stroke-linejoin="round"/>
</svg>
