<svg width="24" height="24" viewBox="0 0 24 24" fill="none" xmlns="http://www.w3.org/2000/svg">
<path d="M12.252 18.9436C12.8856 18.8986 13.5108 18.7975 14.1276 18.6403C14.8866 18.8678 15.6874 18.9195 16.4694 18.7915C16.5005 18.7875 16.5317 18.7851 16.563 18.7843C16.842 18.7843 17.2083 18.9445 17.742 19.282V18.7276C17.7421 18.631 17.7682 18.5362 17.8174 18.4531C17.8666 18.37 17.9372 18.3016 18.0219 18.2551C18.2541 18.1264 18.4701 17.9761 18.6672 17.8123C19.4448 17.1616 19.884 16.2949 19.884 15.3769C19.8837 15.0733 19.8354 14.7717 19.7409 14.4832C19.9749 14.0512 20.1657 13.5958 20.3052 13.1242C20.7552 13.7902 20.9982 14.5732 21 15.3769C21 16.6243 20.4114 17.7889 19.3935 18.6394C19.2232 18.7811 19.0444 18.9121 18.858 19.0318V20.3296C18.858 20.776 18.336 21.0316 17.9679 20.767C17.6197 20.5098 17.2592 20.2695 16.8879 20.047C16.7811 19.9842 16.6702 19.9289 16.5558 19.8814C16.2498 19.927 15.9384 19.9501 15.6216 19.9507C14.3508 19.9507 13.1763 19.5745 12.252 18.9436ZM5.5326 16.3462C3.927 15.0052 3 13.1728 3 11.2126C3 7.204 6.8322 4 11.5113 4C16.1904 4 20.0235 7.204 20.0235 11.2126C20.0235 15.2212 16.1904 18.4243 11.5113 18.4243C10.9851 18.4243 10.4667 18.3844 9.9561 18.3046C9.7356 18.3559 8.8545 18.8725 7.5846 19.7878C7.1256 20.1199 6.4722 19.7995 6.4722 19.2406V17.0266C6.1432 16.8231 5.82919 16.5963 5.5326 16.348M9.9876 16.9402C10.0254 16.9402 10.0644 16.9432 10.1046 16.9492C10.5695 17.0263 11.04 17.0648 11.5113 17.0644C15.4641 17.0644 18.6276 14.4193 18.6276 11.2126C18.6276 8.0059 15.4641 5.3617 11.5113 5.3617C7.5603 5.3617 4.395 8.0068 4.395 11.2126C4.395 12.7633 5.1339 14.2231 6.4407 15.3157C6.7707 15.5905 7.1295 15.8368 7.5171 16.0546C7.734 16.1761 7.8681 16.4011 7.8681 16.6441V17.9212C8.8725 17.2552 9.5331 16.9402 9.9867 16.9402" fill="#FF7B01"/>
<path d="M8.0625 12.4366C8.36087 12.4366 8.64702 12.3181 8.858 12.1071C9.06897 11.8962 9.1875 11.61 9.1875 11.3116C9.1875 11.0133 9.06897 10.7271 8.858 10.5162C8.64702 10.3052 8.36087 10.1866 8.0625 10.1866C7.76413 10.1866 7.47798 10.3052 7.267 10.5162C7.05603 10.7271 6.9375 11.0133 6.9375 11.3116C6.9375 11.61 7.05603 11.8962 7.267 12.1071C7.47798 12.3181 7.76413 12.4366 8.0625 12.4366ZM11.7183 12.4366C12.0167 12.4366 12.3028 12.3181 12.5138 12.1071C12.7248 11.8962 12.8433 11.61 12.8433 11.3116C12.8433 11.0133 12.7248 10.7271 12.5138 10.5162C12.3028 10.3052 12.0167 10.1866 11.7183 10.1866C11.4199 10.1866 11.1338 10.3052 10.9228 10.5162C10.7118 10.7271 10.5933 11.0133 10.5933 11.3116C10.5933 11.61 10.7118 11.8962 10.9228 12.1071C11.1338 12.3181 11.4199 12.4366 11.7183 12.4366ZM15.375 12.4375C15.6734 12.4375 15.9595 12.319 16.1705 12.108C16.3815 11.8971 16.5 11.6109 16.5 11.3125C16.5 11.0142 16.3815 10.728 16.1705 10.5171C15.9595 10.3061 15.6734 10.1875 15.375 10.1875C15.0766 10.1875 14.7905 10.3061 14.5795 10.5171C14.3685 10.728 14.25 11.0142 14.25 11.3125C14.25 11.6109 14.3685 11.8971 14.5795 12.108C14.7905 12.319 15.0766 12.4375 15.375 12.4375Z" fill="#FF7B01"/>
</svg>
