<svg width="25" height="25" viewBox="0 0 25 25" fill="none" xmlns="http://www.w3.org/2000/svg">
<path d="M4.85329 15.4999C5.92169 15.1353 7.08803 15.1188 8.16632 15.453L8.18196 16.559C8.18395 16.6998 8.26354 16.8168 8.38003 16.8755C8.75723 17.0588 9.1127 17.3051 9.43136 17.6149C9.49897 17.6806 9.58992 17.7168 9.6842 17.7155C9.77848 17.7141 9.86837 17.6754 9.93409 17.6078L10.8014 16.7156C10.8672 16.648 10.9033 16.557 10.902 16.4627C10.9007 16.3684 10.8619 16.2786 10.7943 16.2128C9.64496 15.0955 8.09882 14.4806 6.49604 14.5032C4.89326 14.5259 3.36512 15.1843 2.24781 16.3337C2.18209 16.4013 2.14591 16.4923 2.14725 16.5865C2.14858 16.6808 2.18731 16.7707 2.25492 16.8364L3.14715 17.7038C3.21476 17.7695 3.30571 17.8057 3.39999 17.8043C3.49428 17.803 3.58417 17.7643 3.64989 17.6967C3.95966 17.378 4.30802 17.1217 4.67989 16.9279C4.79466 16.8659 4.87092 16.7466 4.86893 16.6059L4.85329 15.4999Z" fill="#E82A2A"/>
<path d="M7.43243 23L11 20L7.43243 17V19.2493H3V20.7493H7.43243V23Z" fill="#0D63B0"/>
<path d="M14 23.25C14 22.0123 14.4917 20.8253 15.3668 19.9502C16.242 19.075 17.429 18.5833 18.6667 18.5833C19.9043 18.5833 21.0913 19.075 21.9665 19.9502C22.8417 20.8253 23.3333 22.0123 23.3333 23.25H14ZM18.6667 18C16.7329 18 15.1667 16.4337 15.1667 14.5C15.1667 12.5662 16.7329 11 18.6667 11C20.6004 11 22.1667 12.5662 22.1667 14.5C22.1667 16.4337 20.6004 18 18.6667 18Z" fill="#E82A2A"/>
<path d="M2 13.25C2 12.0123 2.49167 10.8253 3.36684 9.95017C4.242 9.075 5.42899 8.58333 6.66667 8.58333C7.90434 8.58333 9.09133 9.075 9.9665 9.95017C10.8417 10.8253 11.3333 12.0123 11.3333 13.25H2ZM6.66667 8C4.73292 8 3.16667 6.43375 3.16667 4.5C3.16667 2.56625 4.73292 1 6.66667 1C8.60042 1 10.1667 2.56625 10.1667 4.5C10.1667 6.43375 8.60042 8 6.66667 8Z" fill="#E82A2A"/>
</svg>
