<svg width="16" height="20" viewBox="0 0 16 20" fill="none" xmlns="http://www.w3.org/2000/svg">
<path d="M14.8357 2.78945L14.0469 1.97882C11.1987 -0.858379 4.40689 -0.453065 1.95305 1.97882L1.16432 2.78945C0.945227 3.01462 0.945227 3.3749 1.16432 3.60008L2.7856 5.22134C3.00469 5.44651 3.35524 5.44651 3.57433 5.22134L5.06416 3.69015L5.06416 1.57351C5.6338 0.988053 10.3662 0.988054 10.9358 1.57351L10.9358 3.73518L12.4257 5.22134C12.6448 5.44651 12.9953 5.44651 13.2144 5.22134L14.8357 3.60008C15.0548 3.37491 15.0548 3.01463 14.8357 2.78945Z" fill="#333F54"/>
<path d="M7.95555 11.6889C9.15555 11.6889 10.0889 10.7111 10.0889 9.51108C10.0889 8.31108 9.1111 7.37775 7.9111 7.37775C6.7111 7.37775 5.77777 8.35552 5.77777 9.51108C5.77777 10.7111 6.75555 11.6889 7.95555 11.6889ZM7.9111 8.26664C7.95555 8.26664 7.95555 8.26664 7.9111 8.26664C8.62222 8.26664 9.19999 8.84441 9.19999 9.55552C9.19999 10.2666 8.62222 10.8 7.9111 10.8C7.19999 10.8 6.66666 10.2222 6.66666 9.55552C6.66666 8.84441 7.24444 8.26664 7.9111 8.26664Z" fill="#333F54"/>
<path d="M14.5334 11.4223C13.6889 10.6667 12.5778 10.2667 11.4222 10.3111H11.0667C10.9778 10.6667 10.8445 10.9778 10.6667 11.2445C10.9334 11.2 11.1556 11.2 11.4222 11.2C12.2667 11.1556 13.1111 11.4223 13.7778 11.9111V15.1111H14.6667V11.5556L14.5334 11.4223Z" fill="#333F54"/>
<path d="M10.4 7.46669C10.6222 6.93336 11.2444 6.66669 11.8222 6.88891C12.3555 7.11113 12.6222 7.73335 12.4 8.31113C12.2222 8.71113 11.8222 8.9778 11.4222 8.9778C11.3333 8.9778 11.2 8.9778 11.1111 8.93336C11.1555 9.15558 11.1555 9.3778 11.1555 9.55558V9.82224C11.2444 9.82224 11.3333 9.86669 11.4222 9.86669C12.5333 9.86669 13.4222 8.9778 13.4222 7.91113C13.4222 6.80002 12.5333 5.91113 11.4667 5.91113C10.7555 5.91113 10.1333 6.26669 9.77777 6.88891C9.99999 7.02224 10.2222 7.20002 10.4 7.46669Z" fill="#333F54"/>
<path d="M5.33331 11.2889C5.15554 11.0223 5.0222 10.7111 4.93331 10.3556H4.57776C3.4222 10.3111 2.31109 10.7111 1.46665 11.4223L1.33331 11.5556V15.1111H2.2222V11.9111C2.93331 11.4223 3.73331 11.1556 4.57776 11.2C4.84442 11.2 5.11109 11.2445 5.33331 11.2889Z" fill="#333F54"/>
<path d="M4.5778 9.82224C4.66669 9.82224 4.75558 9.82224 4.84447 9.77779V9.51113C4.84447 9.28891 4.84447 9.06668 4.88891 8.88891C4.80003 8.93335 4.66669 8.93335 4.5778 8.93335C4.00003 8.93335 3.51114 8.44446 3.51114 7.86668C3.51114 7.28891 4.00003 6.80002 4.5778 6.80002C5.02225 6.80002 5.42225 7.06668 5.60003 7.46668C5.7778 7.24446 6.04447 7.02224 6.26669 6.84446C5.68892 5.91113 4.48892 5.60002 3.55558 6.17779C2.62225 6.75557 2.31114 7.95557 2.88892 8.88891C3.24447 9.46668 3.86669 9.82224 4.5778 9.82224Z" fill="#333F54"/>
<path d="M11.6 14.0889L11.5111 13.9556C10.6222 12.9778 9.37779 12.4 8.04446 12.4445C6.71112 12.4 5.42224 12.9778 4.53335 13.9556L4.44446 14.0889V17.4667C4.44446 17.8667 4.75557 18.2222 5.20001 18.2222H10.8889C11.2889 18.2222 11.6445 17.8667 11.6445 17.4667V14.0889H11.6ZM10.7111 17.3334H5.33335V14.4C6.04446 13.6889 7.02224 13.3334 8.04446 13.3334C9.02224 13.2889 10 13.6889 10.7111 14.4V17.3334Z" fill="#333F54"/>
</svg>
