<svg width="25" height="25" viewBox="0 0 25 25" fill="none" xmlns="http://www.w3.org/2000/svg">
<path d="M8.50001 9.12498C8.65348 9.12498 8.78222 9.07298 8.88622 8.96898C8.99022 8.86498 9.04204 8.73642 9.04168 8.58331C9.04132 8.4302 8.98932 8.30165 8.88568 8.19765C8.78204 8.09365 8.65348 8.04165 8.50001 8.04165C8.34654 8.04165 8.21798 8.09365 8.11434 8.19765C8.0107 8.30165 7.9587 8.4302 7.95834 8.58331C7.95798 8.73642 8.00998 8.86516 8.11434 8.96952C8.2187 9.07388 8.34726 9.1257 8.50001 9.12498ZM7.95834 6.95831H9.04168V3.70831H7.95834V6.95831ZM3.08334 12.9166V3.16665C3.08334 2.86873 3.18951 2.61379 3.40184 2.40181C3.61418 2.18984 3.86912 2.08367 4.16668 2.08331H12.8333C13.1313 2.08331 13.3864 2.18948 13.5987 2.40181C13.8111 2.61415 13.917 2.86909 13.9167 3.16665V9.66665C13.9167 9.96456 13.8107 10.2197 13.5987 10.432C13.3867 10.6444 13.1316 10.7503 12.8333 10.75H5.25001L3.08334 12.9166ZM4.78959 9.66665H12.8333V3.16665H4.16668V10.276L4.78959 9.66665Z" fill="#E82A2A"/>
<path d="M7.43243 19L11 16L7.43243 13V15.2493H3V16.7493H7.43243V19Z" fill="#0D63B0"/>
<path d="M14 23.25C14 22.0123 14.4917 20.8253 15.3668 19.9502C16.242 19.075 17.429 18.5833 18.6667 18.5833C19.9043 18.5833 21.0913 19.075 21.9665 19.9502C22.8417 20.8253 23.3333 22.0123 23.3333 23.25H14ZM18.6667 18C16.7329 18 15.1667 16.4337 15.1667 14.5C15.1667 12.5662 16.7329 11 18.6667 11C20.6004 11 22.1667 12.5662 22.1667 14.5C22.1667 16.4337 20.6004 18 18.6667 18Z" fill="#E82A2A"/>
</svg>
