<?xml version="1.0" encoding="utf-8"?>
<!-- Generator: Adobe Illustrator 25.0.1, SVG Export Plug-In . SVG Version: 6.00 Build 0)  -->
<svg version="1.1" id="Layer_1" xmlns="http://www.w3.org/2000/svg" xmlns:xlink="http://www.w3.org/1999/xlink" x="0px" y="0px"
	 viewBox="0 0 115.9 115.8" style="enable-background:new 0 0 115.9 115.8;" xml:space="preserve">
<style type="text/css">
	.st0{display:none;}
	.st1{display:inline;}
	.st2{display:inline;clip-path:url(#SVGID_4_);}
	.st3{display:none;fill:#F79131;stroke:#035381;stroke-width:4;stroke-miterlimit:10;}
	.st4{display:none;fill:#E34956;}
	.st5{fill:#1866AF;}
	.st6{fill-rule:evenodd;clip-rule:evenodd;fill:#EA2930;}
	.st7{fill-rule:evenodd;clip-rule:evenodd;fill:#1866AF;}
	.st8{fill:#FFFFFF;}
</style>
<g>
	<path class="st8" d="M38.1,106.5c4.7,1,9.3,2.3,14.1,2.9c33.4,4,61.6-24.9,57.1-58.4c-0.3-2.4-1.4-2.6-3.3-2.6
		c-14.6,0-29.2,0-43.8,0c-1.2,0-2.4,0-4,0c0-2,0-3.8,0-6c1.2-0.1,2.4-0.2,3.6-0.2c16.1,0,32.1,0.1,48.1-0.1c3.1,0,4.2,1.1,4.8,4
		c7.6,39.6-23.7,70.3-56.1,69.6c-5.2-0.1-10.5-0.8-15.6-1.8C37.2,112.9,37.2,112.6,38.1,106.5z"/>
	<path class="st8" d="M111.4,35.3c-4.7,1.3-7,0-9.1-3.8C91.1,12.2,68.8,2.7,46.5,7.4C25.4,11.9,9,30.1,6.5,52
		C6,56.3,6.1,60.7,6,65.1C6,70.9,6,76.7,6,82.8C-1.6,71.1-3,46.6,7.8,28.7C19.8,8.9,41-2.6,65.1,0.5C86.8,3.3,101.9,15.4,111.4,35.3
		z"/>
	<path class="st8" d="M18.5,100.4c-3.6-3.1-6.3-5.7-6.1-10.7c0.5-11.8-0.1-23.6,0.4-35.3c0.9-19.2,15.4-35.8,34.5-40.4
		c18.6-4.5,39,3.7,48.8,19.8c0.3,0.5,0.6,1.1,0.9,1.9c-4,0.6-6.9,0.4-9.8-3.2c-10.4-12.6-27.7-16.7-43.1-11
		C29,27,18.8,41.5,18.8,57.7c-0.1,13.8,0,27.6,0,41.4C18.7,99.3,18.7,99.5,18.5,100.4z"/>
	<path class="st8" d="M96.7,61.2c-12.9,0-25.6,0-38.5,0c0-2.1,0-4,0-6.3c1,0,2-0.1,3.1-0.1c12.8,0,25.6,0.1,38.4-0.1
		c2.9,0,3.6,1,3.5,3.7c-0.3,30.7-30.2,52.2-59.4,42.7c-7.4-2.4-6-1.4-5.9-9c16,7.8,31.2,7.1,45.2-4.2C91.3,81.3,96.2,71.4,96.7,61.2
		z"/>
	<path class="st8" d="M31.5,109.3c-6.3-2.4-6.4-2.5-6.4-8.4c0-13.9,0-27.8,0-41.7c0.1-18.3,12.2-32,30.3-33.7
		c9.9-1,18.4,2.5,25.5,9.4c-0.1,0.4-0.1,0.8-0.2,1.2c-3.5-0.5-7.4-0.1-10.3-1.5c-18.5-9-39,3.4-39,24c0,15.6,0,31.2,0,46.8
		C31.5,106.5,31.5,107.7,31.5,109.3z"/>
	<path class="st8" d="M38,76.1c16.2,11.4,31.5,10.8,40.6-2c-6.9,0-13.5,0-20.4,0c0-2.4,0-4.2,0-6.3c10.1,0,20.2,0,30.7,0
		c-0.3,1-0.5,2-0.9,2.9C81.3,87.3,61.4,95.3,44.9,88C37.7,84.9,37.5,84.5,38,76.1z"/>
</g>
</svg>
