<svg width="17" height="17" viewBox="0 0 17 17" fill="none" xmlns="http://www.w3.org/2000/svg">
<path d="M15.6253 1C15.7716 0.999951 15.9132 1.05189 16.0255 1.14677C16.1379 1.24166 16.2138 1.37347 16.2402 1.51927L16.2502 1.63325V15.5648C16.2504 15.723 16.1923 15.8757 16.0871 15.9926C15.9819 16.1095 15.8373 16.1823 15.6818 16.1966C15.5263 16.2109 15.3712 16.1657 15.2469 16.0699C15.1227 15.974 15.0383 15.8345 15.0105 15.6788L15.0005 15.5648V1.63325C15.0005 1.4653 15.0664 1.30423 15.1835 1.18548C15.3007 1.06672 15.4596 1 15.6253 1ZM4.37869 8.59776C4.52493 8.59771 4.66656 8.64965 4.7789 8.74453C4.89124 8.83942 4.96719 8.97123 4.99351 9.11703L5.00351 9.23101V15.5635C5.0038 15.7218 4.94561 15.8744 4.84042 15.9913C4.73523 16.1083 4.59065 16.1811 4.43515 16.1954C4.27965 16.2097 4.12451 16.1644 4.00027 16.0686C3.87603 15.9727 3.7917 15.8332 3.76388 15.6775L3.75388 15.5635V9.23101C3.75388 9.06306 3.81971 8.90199 3.93688 8.78323C4.05406 8.66448 4.21298 8.59776 4.37869 8.59776ZM0.624814 11.1308C0.771052 11.1307 0.912675 11.1827 1.02502 11.2775C1.13736 11.3724 1.21331 11.5042 1.23963 11.65L1.24963 11.764V15.5635C1.24992 15.7218 1.19173 15.8744 1.08654 15.9913C0.981348 16.1083 0.836767 16.1811 0.68127 16.1954C0.525772 16.2097 0.370627 16.1644 0.246387 16.0686C0.122146 15.9727 0.037814 15.8332 0.00999689 15.6775L0 15.5635V11.764C0 11.5961 0.0658284 11.435 0.183004 11.3162C0.300179 11.1975 0.459103 11.1308 0.624814 11.1308ZM8.12258 6.06222C8.26882 6.06217 8.41044 6.11411 8.52278 6.20899C8.63513 6.30388 8.71107 6.43569 8.73739 6.58149L8.74739 6.69547V15.5635C8.74768 15.7218 8.6895 15.8744 8.5843 15.9913C8.47911 16.1083 8.33453 16.1811 8.17903 16.1954C8.02354 16.2097 7.86839 16.1644 7.74415 16.0686C7.61991 15.9727 7.53558 15.8332 7.50776 15.6775L7.49776 15.5635V6.69547C7.49776 6.52752 7.56359 6.36645 7.68077 6.24769C7.79794 6.12894 7.95687 6.06222 8.12258 6.06222ZM11.8715 3.53428C12.0177 3.53423 12.1593 3.58617 12.2717 3.68105C12.384 3.77593 12.46 3.90775 12.4863 4.05354L12.4963 4.16753V15.5635C12.4966 15.7218 12.4384 15.8744 12.3332 15.9913C12.228 16.1083 12.0834 16.1811 11.9279 16.1954C11.7724 16.2097 11.6173 16.1644 11.493 16.0686C11.3688 15.9727 11.2845 15.8332 11.2566 15.6775L11.2466 15.5635V4.16753C11.2466 3.99958 11.3125 3.83851 11.4296 3.71975C11.5468 3.60099 11.7057 3.53428 11.8715 3.53428Z" fill="#333F54"/>
<path d="M0 6V0H0.976851V5.08887H3.35184V6H0Z" fill="#333F54"/>
<path d="M6 0V6H5.02315V1.05762H4.99155L3.73033 1.9541V0.958008L5.07054 0H6Z" fill="#333F54"/>
</svg>
