<svg width="17" height="16" viewBox="0 0 17 16" fill="none" xmlns="http://www.w3.org/2000/svg">
<path d="M15.6253 3.05528e-05C15.7716 -1.88585e-05 15.9132 0.0519212 16.0255 0.146805C16.1379 0.241689 16.2138 0.373505 16.2402 0.519297L16.2502 0.633283V14.5648C16.2504 14.7231 16.1923 14.8757 16.0871 14.9926C15.9819 15.1096 15.8373 15.1824 15.6818 15.1967C15.5263 15.211 15.3712 15.1657 15.2469 15.0699C15.1227 14.974 15.0383 14.8345 15.0105 14.6788L15.0005 14.5648V0.633283C15.0005 0.465334 15.0664 0.304264 15.1835 0.185506C15.3007 0.0667481 15.4596 3.05528e-05 15.6253 3.05528e-05ZM4.37869 7.59779C4.52493 7.59774 4.66656 7.64968 4.7789 7.74456C4.89124 7.83945 4.96719 7.97126 4.99351 8.11706L5.00351 8.23104V14.5636C5.0038 14.7218 4.94561 14.8744 4.84042 14.9914C4.73523 15.1083 4.59065 15.1811 4.43515 15.1954C4.27965 15.2097 4.12451 15.1645 4.00027 15.0686C3.87603 14.9728 3.7917 14.8333 3.76388 14.6776L3.75388 14.5636V8.23104C3.75388 8.06309 3.81971 7.90202 3.93688 7.78326C4.05406 7.66451 4.21298 7.59779 4.37869 7.59779ZM0.624814 10.1308C0.771052 10.1308 0.912675 10.1827 1.02502 10.2776C1.13736 10.3725 1.21331 10.5043 1.23963 10.6501L1.24963 10.7641V14.5636C1.24992 14.7218 1.19173 14.8744 1.08654 14.9914C0.981348 15.1083 0.836767 15.1811 0.68127 15.1954C0.525772 15.2097 0.370627 15.1645 0.246387 15.0686C0.122146 14.9728 0.037814 14.8333 0.00999689 14.6776L0 14.5636V10.7641C0 10.5961 0.0658284 10.435 0.183004 10.3163C0.300179 10.1975 0.459103 10.1308 0.624814 10.1308ZM8.12258 5.06225C8.26882 5.0622 8.41044 5.11414 8.52278 5.20902C8.63513 5.30391 8.71107 5.43572 8.73739 5.58152L8.74739 5.6955V14.5636C8.74768 14.7218 8.6895 14.8744 8.5843 14.9914C8.47911 15.1083 8.33453 15.1811 8.17903 15.1954C8.02354 15.2097 7.86839 15.1645 7.74415 15.0686C7.61991 14.9728 7.53558 14.8333 7.50776 14.6776L7.49776 14.5636V5.6955C7.49776 5.52755 7.56359 5.36648 7.68077 5.24772C7.79794 5.12897 7.95687 5.06225 8.12258 5.06225ZM11.8715 2.53431C12.0177 2.53426 12.1593 2.5862 12.2717 2.68108C12.384 2.77596 12.46 2.90778 12.4863 3.05357L12.4963 3.16756V14.5636C12.4966 14.7218 12.4384 14.8744 12.3332 14.9914C12.228 15.1083 12.0834 15.1811 11.9279 15.1954C11.7724 15.2097 11.6173 15.1645 11.493 15.0686C11.3688 14.9728 11.2845 14.8333 11.2566 14.6776L11.2466 14.5636V3.16756C11.2466 2.99961 11.3125 2.83854 11.4296 2.71978C11.5468 2.60102 11.7057 2.53431 11.8715 2.53431Z" fill="#333F54"/>
<path d="M0 5V0.0674374H0.871769V4.25096H2.99127V5H0Z" fill="#333F54"/>
<path d="M3.70091 5V4.35453L5.3716 2.67582C5.53139 2.51044 5.66454 2.36352 5.77106 2.23507C5.87759 2.10662 5.95748 1.98218 6.01074 1.86175C6.064 1.74133 6.09063 1.61288 6.09063 1.4764C6.09063 1.32065 6.05617 1.18738 5.98724 1.07659C5.91832 0.964194 5.82354 0.877489 5.70292 0.816474C5.5823 0.755459 5.44523 0.724952 5.29171 0.724952C5.13349 0.724952 4.99485 0.75867 4.8758 0.826108C4.75674 0.89194 4.66432 0.98587 4.59852 1.1079C4.5343 1.22993 4.50218 1.37524 4.50218 1.54383H3.67271C3.67271 1.23073 3.74242 0.958574 3.88184 0.72736C4.02126 0.496146 4.21316 0.317116 4.45754 0.19027C4.70348 0.0634233 4.98545 0 5.30346 0C5.62616 0 5.9097 0.0618176 6.15408 0.185453C6.39846 0.309088 6.58801 0.478484 6.72273 0.693642C6.85901 0.908799 6.92716 1.15446 6.92716 1.43064C6.92716 1.61529 6.89269 1.79672 6.82377 1.97495C6.75484 2.15318 6.63343 2.35067 6.45955 2.56744C6.28723 2.7842 6.04521 3.04672 5.73347 3.35501L4.90399 4.21965V4.25337H7V5H3.70091Z" fill="#333F54"/>
</svg>
