<svg width="24" height="24" viewBox="0 0 24 24" fill="none" xmlns="http://www.w3.org/2000/svg">
<path d="M6.505 8.47406C6.74656 8.47406 6.97822 8.3799 7.14903 8.21228C7.31984 8.04467 7.4158 7.81733 7.4158 7.58029V7.05296L10.0389 9.62703C10.5512 10.1292 11.2457 10.4112 11.9698 10.4112C12.6939 10.4112 13.3883 10.1292 13.9007 9.62703L18.0812 5.5246C18.2508 5.35714 18.3461 5.13061 18.3461 4.89449C18.3461 4.65837 18.2508 4.43184 18.0812 4.26438C17.9965 4.18061 17.8958 4.11411 17.7848 4.06874C17.6738 4.02336 17.5548 4 17.4345 4C17.3143 4 17.1953 4.02336 17.0843 4.06874C16.9733 4.11411 16.8725 4.18061 16.7879 4.26438L12.6164 8.35787C12.5318 8.44164 12.431 8.50814 12.32 8.55351C12.209 8.59889 12.09 8.62225 11.9698 8.62225C11.8495 8.62225 11.7305 8.59889 11.6195 8.55351C11.5085 8.50814 11.4078 8.44164 11.3231 8.35787L8.70001 5.79273H9.23738C9.47894 5.79273 9.71061 5.69857 9.88141 5.53095C10.0522 5.36334 10.1482 5.136 10.1482 4.89896C10.1482 4.66191 10.0522 4.43458 9.88141 4.26696C9.71061 4.09935 9.47894 4.00518 9.23738 4.00518H6.505C6.32622 4.00533 6.15143 4.0571 6.00243 4.15405C5.85343 4.251 5.73679 4.38884 5.66707 4.55039C5.62118 4.6612 5.59648 4.77936 5.59421 4.89896V7.58029C5.59421 7.81733 5.69016 8.04467 5.86097 8.21228C6.03178 8.3799 6.26344 8.47406 6.505 8.47406ZM21.0231 15.0523C18.4295 13.0882 15.2458 12.0229 11.9698 12.0229C8.69373 12.0229 5.51003 13.0882 2.91647 15.0523C2.64291 15.2687 2.41998 15.5403 2.26283 15.8488C2.10568 16.1572 2.01798 16.4952 2.00568 16.8398C1.98189 17.1802 2.03303 17.5215 2.15561 17.8408C2.27819 18.16 2.46935 18.4496 2.7161 18.6899L4.31909 20.2987C4.72872 20.7005 5.2706 20.9463 5.8479 20.9922C6.4252 21.038 7.00031 20.8809 7.47044 20.549L7.89852 20.263C8.19 20.0784 8.49435 19.9141 8.80931 19.7714C9.19647 19.6036 9.50511 19.299 9.67386 18.9181C9.84262 18.5372 9.85912 18.108 9.7201 17.7157L9.63813 17.5012C11.1976 17.1081 12.833 17.1081 14.3925 17.5012L14.3105 17.7157C14.1715 18.108 14.188 18.5372 14.3567 18.9181C14.5255 19.299 14.8341 19.6036 15.2213 19.7714C15.5363 19.9141 15.8406 20.0784 16.1321 20.263L16.5602 20.549C16.9667 20.8418 17.4585 20.9985 17.9628 20.9959C18.6179 20.9967 19.2467 20.7428 19.7115 20.2898L21.3601 18.6631C21.5909 18.4169 21.7663 18.1256 21.8746 17.8084C21.9829 17.4911 22.0217 17.1549 21.9885 16.8219C21.967 16.4761 21.8696 16.1389 21.703 15.8335C21.5364 15.528 21.3044 15.2616 21.0231 15.0523ZM19.9848 17.4118L18.3453 19.0296C18.2457 19.1314 18.113 19.1961 17.9701 19.2124C17.8271 19.2287 17.6829 19.1957 17.562 19.1189C17.389 18.9938 17.2159 18.8776 17.0247 18.7614C16.7039 18.5624 16.3725 18.3804 16.0319 18.2162L16.3962 17.242C16.4783 17.0192 16.4668 16.7735 16.3643 16.559C16.2618 16.3445 16.0768 16.1786 15.8498 16.098C13.3495 15.2045 10.6083 15.2045 8.108 16.098C7.881 16.1786 7.69592 16.3445 7.59345 16.559C7.49098 16.7735 7.47949 17.0192 7.56152 17.242L7.92584 18.2252C7.58057 18.3828 7.24593 18.5619 6.92397 18.7614L6.39571 19.1189C6.27459 19.2042 6.12552 19.2423 5.97741 19.2258C5.8293 19.2092 5.69273 19.1393 5.59421 19.0296L3.95478 17.4118C3.8957 17.3548 3.84908 17.2865 3.81776 17.2112C3.78645 17.136 3.77108 17.0552 3.77262 16.9739C3.78018 16.8821 3.80669 16.7927 3.85053 16.7113C3.89437 16.6299 3.95463 16.558 4.02764 16.5002C6.30396 14.7796 9.09648 13.8466 11.9698 13.8466C14.8431 13.8466 17.6356 14.7796 19.9119 16.5002C19.9849 16.558 20.0452 16.6299 20.089 16.7113C20.1328 16.7927 20.1594 16.8821 20.1669 16.9739C20.1684 17.0552 20.1531 17.136 20.1218 17.2112C20.0905 17.2865 20.0438 17.3548 19.9848 17.4118Z" fill="#E82A2A"/>
</svg>
