<svg width="19" height="15" viewBox="0 0 19 15" fill="none" xmlns="http://www.w3.org/2000/svg">
<path d="M8.98146 0.0860061C9.13623 0.160825 9.26738 0.280787 9.35936 0.431672C9.45134 0.582557 9.50029 0.75804 9.50042 0.937319V14.0633C9.50004 14.2424 9.45098 14.4177 9.35905 14.5684C9.26711 14.7191 9.13613 14.839 8.98156 14.914C8.827 14.9889 8.6553 15.0157 8.48673 14.9912C8.31816 14.9667 8.15976 14.892 8.03023 14.7758L4.12318 11.2506H2.07822C1.52704 11.2506 0.998437 11.0201 0.608696 10.6098C0.218954 10.1996 0 9.64313 0 9.06292L0 5.93769C0 4.7301 0.931041 3.75003 2.07822 3.75003H4.12437L8.03023 0.224766C8.15962 0.108387 8.31798 0.0334668 8.48656 0.00887527C8.65514 -0.0157162 8.82688 0.0110501 8.98146 0.0860061ZM7.71909 2.97497L5.03285 5.3989C4.87152 5.54473 4.66596 5.62499 4.45332 5.62517H2.07822C1.99948 5.62517 1.92396 5.65809 1.86829 5.7167C1.81261 5.77531 1.78133 5.8548 1.78133 5.93769V9.06292C1.78133 9.23543 1.91433 9.37545 2.07822 9.37545H4.45332C4.66589 9.37545 4.87134 9.45545 5.03285 9.60046L7.71909 12.0256V2.97497ZM14.9584 0.427281C15.1254 0.251705 15.3518 0.153086 15.5878 0.153086C15.8238 0.153086 16.0502 0.251705 16.2172 0.427281C17.0995 1.35594 17.7993 2.45844 18.2768 3.67182C18.7542 4.8852 19 6.1857 19 7.49906C19 8.81242 18.7542 10.1129 18.2768 11.3263C17.7993 12.5397 17.0995 13.6422 16.2172 14.5708C16.0484 14.7366 15.825 14.827 15.5942 14.8228C15.3633 14.8186 15.1431 14.7202 14.9798 14.5483C14.8165 14.3765 14.7231 14.1446 14.7191 13.9016C14.7151 13.6586 14.8009 13.4234 14.9584 13.2457C15.6753 12.4912 16.244 11.5954 16.632 10.6095C17.02 9.62355 17.2196 8.56684 17.2196 7.49968C17.2196 6.43252 17.02 5.37581 16.632 4.3899C16.244 3.40398 15.6753 2.50818 14.9584 1.75363C14.7916 1.57784 14.6979 1.33954 14.6979 1.09108C14.6979 0.842624 14.7916 0.603076 14.9584 0.427281ZM13.6996 3.07873L13.6984 3.07998C14.8116 4.25211 15.4369 5.84166 15.4369 7.49906C15.4369 9.15646 14.8116 10.746 13.6984 11.9181C13.5896 12.0415 13.4511 12.1318 13.2976 12.1793C13.1441 12.2268 12.9813 12.2299 12.8263 12.1882C12.6713 12.1464 12.5298 12.0615 12.4168 11.9422C12.3039 11.823 12.2235 11.6739 12.1843 11.5106C12.1447 11.3476 12.1476 11.1764 12.1925 11.015C12.2374 10.8535 12.3228 10.7078 12.4396 10.593C12.8256 10.1867 13.1318 9.70439 13.3407 9.17352C13.5496 8.64266 13.6572 8.07367 13.6572 7.49906C13.6572 6.92444 13.5496 6.35546 13.3407 5.82459C13.1318 5.29372 12.8256 4.81137 12.4396 4.40508C12.2725 4.22919 12.1787 3.99064 12.1787 3.7419C12.1787 3.49316 12.2725 3.25461 12.4396 3.07873C12.6067 2.90284 12.8333 2.80403 13.0696 2.80403C13.3059 2.80403 13.5325 2.90284 13.6996 3.07873Z" fill="#333F54"/>
</svg>
