<svg width="24" height="24" viewBox="0 0 24 24" fill="none" xmlns="http://www.w3.org/2000/svg">
<path d="M9.0429 16.5C8.87239 16.5 8.70887 16.4323 8.5883 16.3117C8.46773 16.1911 8.39999 16.0276 8.39999 15.8571V8.14254C8.40005 8.033 8.4281 7.92529 8.48148 7.82963C8.53486 7.73397 8.61179 7.65354 8.70499 7.59596C8.79818 7.53839 8.90454 7.50558 9.01397 7.50065C9.12341 7.49572 9.23229 7.51884 9.33028 7.5678L17.0452 11.4251C17.1518 11.4785 17.2415 11.5606 17.3041 11.6621C17.3668 11.7636 17.4 11.8805 17.4 11.9998C17.4 12.1191 17.3668 12.236 17.3041 12.3376C17.2415 12.4391 17.1518 12.5211 17.0452 12.5746L9.33028 16.4319C9.24107 16.4766 9.14268 16.4999 9.0429 16.5ZM9.68581 9.18272V14.8169L15.3202 11.9998L9.68581 9.18272Z" fill="#E82A2A"/>
<path d="M12 4.28571C13.5257 4.28571 15.0172 4.73815 16.2858 5.58581C17.5544 6.43346 18.5432 7.63827 19.1271 9.04787C19.7109 10.4575 19.8637 12.0086 19.5661 13.505C19.2684 15.0014 18.5337 16.376 17.4548 17.4548C16.376 18.5337 15.0014 19.2684 13.505 19.5661C12.0086 19.8637 10.4575 19.7109 9.04787 19.1271C7.63827 18.5432 6.43347 17.5544 5.58581 16.2858C4.73815 15.0172 4.28572 13.5257 4.28572 12C4.28572 9.95404 5.09847 7.99188 6.54518 6.54518C7.99189 5.09847 9.95405 4.28571 12 4.28571ZM12 3C10.22 3 8.47991 3.52784 6.99987 4.51677C5.51983 5.50571 4.36628 6.91131 3.68509 8.55585C3.0039 10.2004 2.82567 12.01 3.17294 13.7558C3.5202 15.5016 4.37737 17.1053 5.63604 18.364C6.89471 19.6226 8.49836 20.4798 10.2442 20.8271C11.99 21.1743 13.7996 20.9961 15.4442 20.3149C17.0887 19.6337 18.4943 18.4802 19.4832 17.0001C20.4722 15.5201 21 13.78 21 12C21 9.61305 20.0518 7.32387 18.364 5.63604C16.6761 3.94821 14.387 3 12 3Z" fill="#E82A2A"/>
</svg>
