<svg width="86" height="37" viewBox="0 0 86 37" fill="none" xmlns="http://www.w3.org/2000/svg">
<g filter="url(#filter0_d_178_1883)">
<rect x="4" width="78" height="29" rx="14.5" fill="#FF0004"/>
</g>
<path d="M33.8672 9.46875H36.8848C37.5332 9.46875 38.0859 9.56641 38.543 9.76172C39 9.95703 39.3496 10.2461 39.5918 10.6289C39.8379 11.0078 39.9609 11.4766 39.9609 12.0352C39.9609 12.4609 39.8828 12.8359 39.7266 13.1602C39.5703 13.4844 39.3496 13.7578 39.0645 13.9805C38.7793 14.1992 38.4395 14.3691 38.0449 14.4902L37.5996 14.707H34.8867L34.875 13.541H36.9082C37.2598 13.541 37.5527 13.4785 37.7871 13.3535C38.0215 13.2285 38.1973 13.0586 38.3145 12.8438C38.4355 12.625 38.4961 12.3789 38.4961 12.1055C38.4961 11.8086 38.4375 11.5508 38.3203 11.332C38.207 11.1094 38.0312 10.9395 37.793 10.8223C37.5547 10.7012 37.252 10.6406 36.8848 10.6406H35.3379V18H33.8672V9.46875ZM38.7363 18L36.7324 14.168L38.2734 14.1621L40.3066 17.9238V18H38.7363ZM44.5801 18.1172C44.1113 18.1172 43.6875 18.041 43.3086 17.8887C42.9336 17.7324 42.6133 17.5156 42.3477 17.2383C42.0859 16.9609 41.8848 16.6348 41.7441 16.2598C41.6035 15.8848 41.5332 15.4805 41.5332 15.0469V14.8125C41.5332 14.3164 41.6055 13.8672 41.75 13.4648C41.8945 13.0625 42.0957 12.7188 42.3535 12.4336C42.6113 12.1445 42.916 11.9238 43.2676 11.7715C43.6191 11.6191 44 11.543 44.4102 11.543C44.8633 11.543 45.2598 11.6191 45.5996 11.7715C45.9395 11.9238 46.2207 12.1387 46.4434 12.416C46.6699 12.6895 46.8379 13.0156 46.9473 13.3945C47.0605 13.7734 47.1172 14.1914 47.1172 14.6484V15.252H42.2188V14.2383H45.7227V14.127C45.7148 13.873 45.6641 13.6348 45.5703 13.4121C45.4805 13.1895 45.3418 13.0098 45.1543 12.873C44.9668 12.7363 44.7168 12.668 44.4043 12.668C44.1699 12.668 43.9609 12.7188 43.7773 12.8203C43.5977 12.918 43.4473 13.0605 43.3262 13.248C43.2051 13.4355 43.1113 13.6621 43.0449 13.9277C42.9824 14.1895 42.9512 14.4844 42.9512 14.8125V15.0469C42.9512 15.3242 42.9883 15.582 43.0625 15.8203C43.1406 16.0547 43.2539 16.2598 43.4023 16.4355C43.5508 16.6113 43.7305 16.75 43.9414 16.8516C44.1523 16.9492 44.3926 16.998 44.6621 16.998C45.002 16.998 45.3047 16.9297 45.5703 16.793C45.8359 16.6562 46.0664 16.4629 46.2617 16.2129L47.0059 16.9336C46.8691 17.1328 46.6914 17.3242 46.4727 17.5078C46.2539 17.6875 45.9863 17.834 45.6699 17.9473C45.3574 18.0605 44.9941 18.1172 44.5801 18.1172ZM48.7891 11.6602H50.207V18.5508C50.207 18.9844 50.1328 19.3496 49.9844 19.6465C49.8359 19.9473 49.6172 20.1738 49.3281 20.3262C49.0391 20.4824 48.6855 20.5605 48.2676 20.5605C48.1426 20.5605 48.0137 20.5508 47.8809 20.5312C47.7441 20.5156 47.6152 20.4922 47.4941 20.4609L47.5 19.3594C47.582 19.375 47.6699 19.3867 47.7637 19.3945C47.8535 19.4062 47.9395 19.4121 48.0215 19.4121C48.1895 19.4121 48.3301 19.3828 48.4434 19.3242C48.5566 19.2656 48.6426 19.1738 48.7012 19.0488C48.7598 18.9238 48.7891 18.7578 48.7891 18.5508V11.6602ZM48.666 9.99609C48.666 9.78125 48.7383 9.60352 48.8828 9.46289C49.0273 9.31836 49.2246 9.24609 49.4746 9.24609C49.7285 9.24609 49.9258 9.31836 50.0664 9.46289C50.2109 9.60352 50.2832 9.78125 50.2832 9.99609C50.2832 10.207 50.2109 10.3828 50.0664 10.5234C49.9258 10.6641 49.7285 10.7344 49.4746 10.7344C49.2246 10.7344 49.0273 10.6641 48.8828 10.5234C48.7383 10.3828 48.666 10.207 48.666 9.99609ZM55.0254 18.1172C54.5566 18.1172 54.1328 18.041 53.7539 17.8887C53.3789 17.7324 53.0586 17.5156 52.793 17.2383C52.5312 16.9609 52.3301 16.6348 52.1895 16.2598C52.0488 15.8848 51.9785 15.4805 51.9785 15.0469V14.8125C51.9785 14.3164 52.0508 13.8672 52.1953 13.4648C52.3398 13.0625 52.541 12.7188 52.7988 12.4336C53.0566 12.1445 53.3613 11.9238 53.7129 11.7715C54.0645 11.6191 54.4453 11.543 54.8555 11.543C55.3086 11.543 55.7051 11.6191 56.0449 11.7715C56.3848 11.9238 56.666 12.1387 56.8887 12.416C57.1152 12.6895 57.2832 13.0156 57.3926 13.3945C57.5059 13.7734 57.5625 14.1914 57.5625 14.6484V15.252H52.6641V14.2383H56.168V14.127C56.1602 13.873 56.1094 13.6348 56.0156 13.4121C55.9258 13.1895 55.7871 13.0098 55.5996 12.873C55.4121 12.7363 55.1621 12.668 54.8496 12.668C54.6152 12.668 54.4062 12.7188 54.2227 12.8203C54.043 12.918 53.8926 13.0605 53.7715 13.248C53.6504 13.4355 53.5566 13.6621 53.4902 13.9277C53.4277 14.1895 53.3965 14.4844 53.3965 14.8125V15.0469C53.3965 15.3242 53.4336 15.582 53.5078 15.8203C53.5859 16.0547 53.6992 16.2598 53.8477 16.4355C53.9961 16.6113 54.1758 16.75 54.3867 16.8516C54.5977 16.9492 54.8379 16.998 55.1074 16.998C55.4473 16.998 55.75 16.9297 56.0156 16.793C56.2812 16.6562 56.5117 16.4629 56.707 16.2129L57.4512 16.9336C57.3145 17.1328 57.1367 17.3242 56.918 17.5078C56.6992 17.6875 56.4316 17.834 56.1152 17.9473C55.8027 18.0605 55.4395 18.1172 55.0254 18.1172ZM61.7539 16.9922C61.9844 16.9922 62.1914 16.9473 62.375 16.8574C62.5625 16.7637 62.7129 16.6348 62.8262 16.4707C62.9434 16.3066 63.0078 16.1172 63.0195 15.9023H64.3496C64.3418 16.3125 64.2207 16.6855 63.9863 17.0215C63.752 17.3574 63.4414 17.625 63.0547 17.8242C62.668 18.0195 62.2402 18.1172 61.7715 18.1172C61.2871 18.1172 60.8652 18.0352 60.5059 17.8711C60.1465 17.7031 59.8477 17.4727 59.6094 17.1797C59.3711 16.8867 59.1914 16.5488 59.0703 16.166C58.9531 15.7832 58.8945 15.373 58.8945 14.9355V14.7305C58.8945 14.293 58.9531 13.8828 59.0703 13.5C59.1914 13.1133 59.3711 12.7734 59.6094 12.4805C59.8477 12.1875 60.1465 11.959 60.5059 11.7949C60.8652 11.627 61.2852 11.543 61.7656 11.543C62.2734 11.543 62.7188 11.6445 63.1016 11.8477C63.4844 12.0469 63.7852 12.3262 64.0039 12.6855C64.2266 13.041 64.3418 13.4551 64.3496 13.9277H63.0195C63.0078 13.6934 62.9492 13.4824 62.8438 13.2949C62.7422 13.1035 62.5977 12.9512 62.4102 12.8379C62.2266 12.7246 62.0059 12.668 61.748 12.668C61.4629 12.668 61.2266 12.7266 61.0391 12.8438C60.8516 12.957 60.7051 13.1133 60.5996 13.3125C60.4941 13.5078 60.418 13.7285 60.3711 13.9746C60.3281 14.2168 60.3066 14.4688 60.3066 14.7305V14.9355C60.3066 15.1973 60.3281 15.4512 60.3711 15.6973C60.4141 15.9434 60.4883 16.1641 60.5938 16.3594C60.7031 16.5508 60.8516 16.7051 61.0391 16.8223C61.2266 16.9355 61.4648 16.9922 61.7539 16.9922ZM68.8398 11.6602V12.6914H65.2656V11.6602H68.8398ZM66.2969 10.1074H67.709V16.248C67.709 16.4434 67.7363 16.5938 67.791 16.6992C67.8496 16.8008 67.9297 16.8691 68.0312 16.9043C68.1328 16.9395 68.252 16.957 68.3887 16.957C68.4863 16.957 68.5801 16.9512 68.6699 16.9395C68.7598 16.9277 68.832 16.916 68.8867 16.9043L68.8926 17.9824C68.7754 18.0176 68.6387 18.0488 68.4824 18.0762C68.3301 18.1035 68.1543 18.1172 67.9551 18.1172C67.6309 18.1172 67.3438 18.0605 67.0938 17.9473C66.8438 17.8301 66.6484 17.6406 66.5078 17.3789C66.3672 17.1172 66.2969 16.7695 66.2969 16.3359V10.1074Z" fill="white"/>
<path d="M15 20L20.5 14.5M20.5 14.5L26 9M20.5 14.5L26 20M20.5 14.5L15 9" stroke="white" stroke-width="1.25" stroke-linecap="round"/>
<defs>
<filter id="filter0_d_178_1883" x="0" y="0" width="86" height="37" filterUnits="userSpaceOnUse" color-interpolation-filters="sRGB">
<feFlood flood-opacity="0" result="BackgroundImageFix"/>
<feColorMatrix in="SourceAlpha" type="matrix" values="0 0 0 0 0 0 0 0 0 0 0 0 0 0 0 0 0 0 127 0" result="hardAlpha"/>
<feOffset dy="4"/>
<feGaussianBlur stdDeviation="2"/>
<feComposite in2="hardAlpha" operator="out"/>
<feColorMatrix type="matrix" values="0 0 0 0 0 0 0 0 0 0 0 0 0 0 0 0 0 0 0.25 0"/>
<feBlend mode="normal" in2="BackgroundImageFix" result="effect1_dropShadow_178_1883"/>
<feBlend mode="normal" in="SourceGraphic" in2="effect1_dropShadow_178_1883" result="shape"/>
</filter>
</defs>
</svg>
