<svg width="12" height="19" viewBox="0 0 12 19" fill="none" xmlns="http://www.w3.org/2000/svg">
<path d="M3.60762 0.212516L2.55923 1.23259C-1.11015 4.91619 -0.585952 13.7002 2.55923 16.8737L3.60762 17.8938C3.89884 18.1772 4.36479 18.1772 4.65601 17.8938L6.7528 15.797C7.04402 15.5136 7.04402 15.0603 6.7528 14.7769L4.7725 12.8501H2.03503C1.27786 12.1134 1.27786 5.99294 2.03503 5.25622H4.83075L6.7528 3.32941C7.04402 3.04606 7.04402 2.59269 6.7528 2.30934L4.65601 0.212516C4.36479 -0.0708385 3.89884 -0.0708385 3.60762 0.212516Z" fill="#333F54"/>
<path d="M7 6V13L12 9.5L7 6Z" fill="#364857"/>
</svg>
