<svg width="20" height="15" viewBox="0 0 20 15" fill="none" xmlns="http://www.w3.org/2000/svg">
<path d="M9.45375 0.0860061C9.61666 0.160825 9.7547 0.280787 9.85152 0.431672C9.94834 0.582557 9.99987 0.75804 10 0.937319V14.0633C9.9996 14.2424 9.94796 14.4177 9.85119 14.5684C9.75442 14.7191 9.61655 14.839 9.45386 14.914C9.29116 14.9889 9.11044 15.0157 8.933 14.9912C8.75557 14.9667 8.58885 14.892 8.4525 14.7758L4.34 11.2506H2.1875C1.60734 11.2506 1.05094 11.0201 0.640704 10.6098C0.230468 10.1996 0 9.64313 0 9.06292L0 5.93769C0 4.7301 0.98 3.75003 2.1875 3.75003H4.34125L8.4525 0.224767C8.58869 0.108387 8.75538 0.0334668 8.93282 0.00887527C9.11027 -0.0157162 9.29104 0.0110501 9.45375 0.0860061ZM8.125 2.97497L5.2975 5.3989C5.12769 5.54473 4.91132 5.62498 4.6875 5.62517H2.1875C2.10462 5.62517 2.02513 5.65809 1.96653 5.7167C1.90792 5.77531 1.875 5.8548 1.875 5.93769V9.06292C1.875 9.23544 2.015 9.37545 2.1875 9.37545H4.6875C4.91125 9.37545 5.1275 9.45545 5.2975 9.60046L8.125 12.0256V2.97497Z" fill="#333F54"/>
<path fill-rule="evenodd" clip-rule="evenodd" d="M18.9911 4.99281C19.3816 4.60229 19.3816 3.96912 18.9911 3.5786C18.6006 3.18807 17.9674 3.18807 17.5769 3.5786L15.0523 6.10314L12.5278 3.5786C12.1373 3.18807 11.5041 3.18807 11.1136 3.5786C10.7231 3.96912 10.7231 4.60229 11.1136 4.99281L13.6381 7.51735L11.0072 10.1483C10.6166 10.5388 10.6166 11.172 11.0072 11.5625C11.3977 11.953 12.0308 11.953 12.4214 11.5625L15.0523 8.93156L17.6833 11.5625C18.0738 11.953 18.707 11.953 19.0975 11.5625C19.488 11.172 19.488 10.5388 19.0975 10.1483L16.4665 7.51735L18.9911 4.99281Z" fill="#333F54"/>
</svg>
