<svg width="24" height="24" viewBox="0 0 24 24" fill="none" xmlns="http://www.w3.org/2000/svg">
<path d="M20.5896 11.4405C20.8632 11.8239 21 12.0165 21 12.3C21 12.5844 20.8632 12.7761 20.5896 13.1595C19.3602 14.8839 16.2201 18.6 12 18.6C7.779 18.6 4.6398 14.883 3.4104 13.1595C3.1368 12.7761 3 12.5835 3 12.3C3 12.0156 3.1368 11.8239 3.4104 11.4405C4.6398 9.7161 7.7799 6 12 6C16.221 6 19.3602 9.717 20.5896 11.4405Z" stroke="#0D63B0" stroke-width="1.5" stroke-linecap="round" stroke-linejoin="round"/>
<path d="M14.7 12.3C14.7 11.5839 14.4155 10.8971 13.9092 10.3908C13.4028 9.88444 12.7161 9.59998 12 9.59998C11.2839 9.59998 10.5971 9.88444 10.0908 10.3908C9.58445 10.8971 9.29999 11.5839 9.29999 12.3C9.29999 13.0161 9.58445 13.7028 10.0908 14.2092C10.5971 14.7155 11.2839 15 12 15C12.7161 15 13.4028 14.7155 13.9092 14.2092C14.4155 13.7028 14.7 13.0161 14.7 12.3Z" stroke="#0D63B0" stroke-width="1.5" stroke-linecap="round" stroke-linejoin="round"/>
</svg>
